#!OML:ASF H:\IndianDance\Patient Classification 1\Patient 1\Session 1\dancer.ASF
:FULLY-SPECIFIED
:DEGREES
1968
root 7.21559 15.7805 1.20627 52.1407 -86.4453 -44.233
lowerback -0.747276 1.28514 -0.633946
upperback -6.03712 1.58086 0.0764218
thorax -5.8501 0.766019 0.370231
lowerneck -20.406 -0.431174 2.17663
upperneck 29.7171 -1.65112 -0.699692
head 13.4076 -0.743532 -0.976265
rclavicle 4.5472e-015 7.95139e-016
rhumerus -7.58122 -0.913587 -8.86687
rradius 25.2882
rwrist -7.1679
rhand 14.2968 -3.8878
rfingers 7.12502
rthumb 39.1893 -29.3533
lclavicle 4.5472e-015 7.95139e-016
lhumerus -3.96481 -12.4983 2.83644
lradius 27.1509
lwrist 3.38875
lhand 20.1274 17.865
lfingers 7.12502
lthumb 44.6538 41.4997
rfemur -14.347 14.9886 12.6731
rtibia 21.5931
rfoot -9.85474 -31.6893
rtoes 3.42513
lfemur -11.4135 -10.2093 -9.30834
ltibia 16.5731
lfoot -7.26725 29.1796
ltoes 2.30833
1969
root 7.21642 15.7804 1.20634 52.2755 -86.4619 -44.3637
lowerback -0.771509 1.27516 -0.63903
upperback -6.05822 1.56656 0.0818204
thorax -5.85873 0.758914 0.379617
lowerneck -20.383 -0.454896 2.17574
upperneck 29.6579 -1.65461 -0.779695
head 13.3765 -0.75645 -1.00698
rclavicle 3.96575e-014 3.97569e-016
rhumerus -7.50874 -1.85049 -8.95637
rradius 25.1546
rwrist -7.08808
rhand 14.2892 -4.02178
rfingers 7.12502
rthumb 39.1821 -29.4894
lclavicle 3.96575e-014 3.97569e-016
lhumerus -3.97682 -12.4365 2.86044
lradius 27.1291
lwrist 3.32636
lhand 20.1344 17.878
lfingers 7.12502
lthumb 44.6603 41.5102
rfemur -14.3591 14.9702 12.6628
rtibia 21.5924
rfoot -9.84554 -31.6554
rtoes 3.40902
lfemur -11.4152 -10.2024 -9.31493
ltibia 16.5703
lfoot -7.26924 29.1853
ltoes 2.32021
1970
root 7.2172 15.7804 1.20648 52.4255 -86.4822 -44.5103
lowerback -0.79681 1.2655 -0.648075
upperback -6.07905 1.55262 0.0881877
thorax -5.86662 0.752217 0.392228
lowerneck -20.3484 -0.477285 2.17552
upperneck 29.5984 -1.65436 -0.866111
head 13.3428 -0.76871 -1.03953
rclavicle -2.89977e-014 7.95139e-015
rhumerus -7.43054 -2.70029 -9.04097
rradius 25.0168
rwrist -7.00743
rhand 14.2297 -4.1378
rfingers 7.12502
rthumb 39.1261 -29.6216
lclavicle -2.89977e-014 7.95139e-015
lhumerus -3.99433 -12.3875 2.88686
lradius 27.1084
lwrist 3.26278
lhand 20.1301 17.8848
lfingers 7.12502
lthumb 44.6563 41.5185
rfemur -14.3724 14.9402 12.6504
rtibia 21.5929
rfoot -9.82673 -31.6081
rtoes 3.37293
lfemur -11.4129 -10.1934 -9.32455
ltibia 16.5633
lfoot -7.2712 29.1915
ltoes 2.33905
1971
root 7.21801 15.7804 1.20667 52.5984 -86.5047 -44.6821
lowerback -0.820815 1.25695 -0.659141
upperback -6.09853 1.54021 0.0950621
thorax -5.8739 0.746423 0.406409
lowerneck -20.3077 -0.498159 2.17671
upperneck 29.5376 -1.65204 -0.953812
head 13.3073 -0.780124 -1.07232
rclavicle 3.68497e-014 3.97569e-015
rhumerus -7.35458 -3.44462 -9.11754
rradius 24.8866
rwrist -6.90995
rhand 14.1281 -4.23422
rfingers 7.12502
rthumb 39.0303 -29.7456
lclavicle 3.68497e-014 3.97569e-015
lhumerus -4.01524 -12.357 2.91368
lradius 27.092
lwrist 3.2067
lhand 20.1183 17.8854
lfingers 7.12502
lthumb 44.6453 41.5234
rfemur -14.3852 14.9019 12.638
rtibia 21.5945
rfoot -9.80019 -31.5502
rtoes 3.32032
lfemur -11.4056 -10.1775 -9.33602
ltibia 16.5519
lfoot -7.26836 29.1929
ltoes 2.35239
1972
root 7.21876 15.7804 1.20692 52.7877 -86.5295 -44.8733
lowerback -0.842869 1.24967 -0.67155
upperback -6.11549 1.52957 0.102027
thorax -5.87969 0.741624 0.421337
lowerneck -20.2682 -0.518825 2.17896
upperneck 29.4814 -1.64939 -1.04404
head 13.274 -0.791621 -1.10625
rclavicle 3.80176e-015 -5.56597e-015
rhumerus -7.28405 -4.09359 -9.18436
rradius 24.7711
rwrist -6.76621
rhand 14.0093 -4.30271
rfingers 7.12502
rthumb 38.9183 -29.8461
lclavicle 3.80176e-015 -5.56597e-015
lhumerus -4.03619 -12.3307 2.94298
lradius 27.0751
lwrist 3.14927
lhand 20.1088 17.8799
lfingers 7.12502
lthumb 44.6365 41.5213
rfemur -14.396 14.8554 12.6252
rtibia 21.5973
rfoot -9.76713 -31.4819
rtoes 3.2518
lfemur -11.3918 -10.1563 -9.35008
ltibia 16.5365
lfoot -7.26446 29.1912
ltoes 2.3667
1973
root 7.21952 15.7805 1.2073 52.9738 -86.5578 -45.0661
lowerback -0.860546 1.24414 -0.685744
upperback -6.1289 1.52137 0.107854
thorax -5.88427 0.738161 0.435915
lowerneck -20.2333 -0.54066 2.17701
upperneck 29.4297 -1.64895 -1.12941
head 13.2438 -0.803831 -1.13799
rclavicle 7.42958e-015 -4.37326e-015
rhumerus -7.21596 -4.70402 -9.24339
rradius 24.6629
rwrist -6.51859
rhand 13.8979 -4.32099
rfingers 7.12502
rthumb 38.8133 -29.8943
lclavicle 7.42958e-015 -4.37326e-015
lhumerus -4.05533 -12.3052 2.97473
lradius 27.0586
lwrist 3.09204
lhand 20.1009 17.8616
lfingers 7.12502
lthumb 44.6291 41.5058
rfemur -14.4032 14.8006 12.6103
rtibia 21.6009
rfoot -9.72497 -31.4038
rtoes 3.16179
lfemur -11.3702 -10.1307 -9.36931
ltibia 16.5176
lfoot -7.25783 29.1862
ltoes 2.37719
1974
root 7.2203 15.7805 1.20775 53.1555 -86.5871 -45.2598
lowerback -0.872709 1.24018 -0.699417
upperback -6.13908 1.51536 0.112141
thorax -5.88855 0.735788 0.448421
lowerneck -20.2025 -0.564694 2.17433
upperneck 29.383 -1.6527 -1.21234
head 13.2164 -0.81758 -1.16943
rclavicle 5.24295e-015 7.15625e-015
rhumerus -7.15977 -5.25903 -9.29134
rradius 24.5748
rwrist -6.1937
rhand 13.8051 -4.29762
rfingers 7.12502
rthumb 38.7257 -29.8957
lclavicle 5.24295e-015 7.15625e-015
lhumerus -4.07109 -12.2793 3.00718
lradius 27.0436
lwrist 3.03687
lhand 20.0955 17.8419
lfingers 7.12502
lthumb 44.6241 41.488
rfemur -14.405 14.7414 12.5959
rtibia 21.6049
rfoot -9.68121 -31.3201
rtoes 3.06565
lfemur -11.3415 -10.0968 -9.39154
ltibia 16.4963
lfoot -7.24683 29.1739
ltoes 2.38265
1975
root 7.22107 15.7805 1.20828 53.3389 -86.6172 -45.4611
lowerback -0.880758 1.23712 -0.712294
upperback -6.14372 1.51077 0.11521
thorax -5.88927 0.73414 0.459126
lowerneck -20.1776 -0.592764 2.16818
upperneck 29.3384 -1.66233 -1.29226
head 13.1912 -0.833797 -1.20014
rclavicle 3.6154e-014 1.23246e-014
rhumerus -7.1079 -5.77284 -9.33425
rradius 24.5065
rwrist -5.8311
rhand 13.7208 -4.27133
rfingers 7.12502
rthumb 38.6463 -29.8918
lclavicle 3.6154e-014 1.23246e-014
lhumerus -4.08402 -12.2459 3.04052
lradius 27.0292
lwrist 2.98339
lhand 20.0941 17.8243
lfingers 7.12502
lthumb 44.6227 41.471
rfemur -14.4003 14.6783 12.5825
rtibia 21.6082
rfoot -9.6331 -31.2322
rtoes 2.95934
lfemur -11.3057 -10.0597 -9.41631
ltibia 16.4743
lfoot -7.23289 29.1586
ltoes 2.38045
1976
root 7.22192 15.7804 1.2089 53.5207 -86.6466 -45.6665
lowerback -0.88276 1.2338 -0.722919
upperback -6.14491 1.50604 0.117759
thorax -5.88969 0.732355 0.467944
lowerneck -20.1579 -0.624215 2.16203
upperneck 29.2954 -1.67603 -1.37534
head 13.1676 -0.85219 -1.2328
rclavicle 1.39646e-014 -5.56597e-015
rhumerus -7.0587 -6.24171 -9.37109
rradius 24.4539
rwrist -5.4522
rhand 13.6569 -4.2368
rfingers 7.12502
rthumb 38.5859 -29.8742
lclavicle 1.39646e-014 -5.56597e-015
lhumerus -4.10091 -12.2159 3.0719
lradius 27.0208
lwrist 2.9394
lhand 20.0988 17.809
lfingers 7.12502
lthumb 44.6271 41.454
rfemur -14.3891 14.6121 12.5713
rtibia 21.61
rfoot -9.58189 -31.1421
rtoes 2.8477
lfemur -11.2644 -10.019 -9.44221
ltibia 16.4528
lfoot -7.2199 29.1388
ltoes 2.38393
1977
root 7.22284 15.7803 1.20963 53.7369 -86.6729 -45.9109
lowerback -0.880989 1.23025 -0.728273
upperback -6.1427 1.50131 0.120456
thorax -5.88853 0.730362 0.473925
lowerneck -20.138 -0.660305 2.15495
upperneck 29.2496 -1.69566 -1.45985
head 13.1426 -0.87346 -1.26674
rclavicle 1.59773e-014 8.74653e-015
rhumerus -7.01366 -6.64002 -9.40215
rradius 24.4182
rwrist -5.10253
rhand 13.6064 -4.21064
rfingers 7.12502
rthumb 38.5383 -29.8614
lclavicle 1.59773e-014 8.74653e-015
lhumerus -4.12013 -12.1932 3.1001
lradius 27.0172
lwrist 2.90903
lhand 20.1094 17.8051
lfingers 7.12502
lthumb 44.6369 41.4463
rfemur -14.3717 14.5461 12.5652
rtibia 21.6094
rfoot -9.53115 -31.053
rtoes 2.73927
lfemur -11.2192 -9.98016 -9.46518
ltibia 16.4327
lfoot -7.20796 29.1196
ltoes 2.3858
1978
root 7.2238 15.7803 1.21044 53.9374 -86.6981 -46.1428
lowerback -0.877351 1.22518 -0.732113
upperback -6.13795 1.49467 0.122887
thorax -5.88565 0.727377 0.478854
lowerneck -20.1157 -0.698764 2.14451
upperneck 29.2012 -1.71748 -1.54446
head 13.1161 -0.896096 -1.30038
rclavicle -3.23025e-015 -4.77083e-015
rhumerus -6.97072 -6.94286 -9.42764
rradius 24.3973
rwrist -4.81372
rhand 13.562 -4.1949
rfingers 7.12502
rthumb 38.4964 -29.8573
lclavicle -3.23025e-015 -4.77083e-015
lhumerus -4.14429 -12.1767 3.12483
lradius 27.0166
lwrist 2.889
lhand 20.1241 17.8063
lfingers 7.12502
lthumb 44.6506 41.4421
rfemur -14.3489 14.478 12.5603
rtibia 21.6059
rfoot -9.479 -30.964
rtoes 2.63615
lfemur -11.1723 -9.9387 -9.48919
ltibia 16.4147
lfoot -7.19587 29.0967
ltoes 2.39316
1979
root 7.22481 15.7802 1.21135 54.1542 -86.7203 -46.3933
lowerback -0.872822 1.21843 -0.732539
upperback -6.13113 1.486 0.126257
thorax -5.88097 0.723257 0.482941
lowerneck -20.0874 -0.739739 2.13235
upperneck 29.149 -1.74137 -1.63184
head 13.0867 -0.920263 -1.33494
rclavicle -2.26118e-014 -1.31198e-014
rhumerus -6.93005 -7.13503 -9.44713
rradius 24.3919
rwrist -4.60605
rhand 13.5282 -4.19804
rfingers 7.12502
rthumb 38.4645 -29.8694
lclavicle -2.26118e-014 -1.31198e-014
lhumerus -4.1745 -12.171 3.14511
lradius 27.0188
lwrist 2.88106
lhand 20.1463 17.8052
lfingers 7.12502
lthumb 44.6713 41.4331
rfemur -14.3219 14.4098 12.559
rtibia 21.5993
rfoot -9.42837 -30.8763
rtoes 2.54324
lfemur -11.1249 -9.8985 -9.51077
ltibia 16.3991
lfoot -7.18552 29.0741
ltoes 2.40715
